<?xml version="1.0" encoding="UTF-8" standalone="no"?>
<!-- Uploaded to: SVG Repo, www.svgrepo.com, Generator: SVG Repo Mixer Tools -->

<svg
   width="800"
   height="800"
   viewBox="0 0 24 24"
   fill="none"
   version="1.1"
   id="svg3"
   xmlns="http://www.w3.org/2000/svg"
   xmlns:svg="http://www.w3.org/2000/svg">
  <defs
     id="defs3" />
  <path
     style="fill:#ffffff;stroke-width:0.0396589"
     d="M 9.649658,24.005855 C 8.1743405,23.940602 6.2421357,23.789866 5.312074,23.66747 2.8909229,23.348846 1.0024449,21.588359 0.52874853,19.208331 0.49388072,19.033143 0.42171589,18.450838 0.36838234,17.914323 0.032866,14.539154 -0.01870514,11.297727 0.21001563,7.9604131 0.29225473,6.7604428 0.45063992,5.1875164 0.52874853,4.79507 0.74868495,3.6900276 1.250852,2.7459353 2.0438095,1.9467001 3.0212521,0.96151932 4.099245,0.46496047 5.620362,0.29922351 9.1802008,-0.0886474 13.043887,-0.14531178 16.641671,0.13758607 c 1.819884,0.14309964 2.521142,0.23932277 3.07654,0.42214827 1.940566,0.63879376 3.358139,2.23865686 3.752758,4.23533566 0.03463,0.1751887 0.106803,0.7574926 0.160398,1.2940081 0.396991,3.9741229 0.396991,7.8511219 0,11.8252439 -0.105373,1.054834 -0.169126,1.437283 -0.321905,1.931058 -0.593734,1.918924 -2.340989,3.44719 -4.317368,3.77626 -0.641734,0.106844 -2.235477,0.250416 -3.851533,0.346951 -0.926963,0.05537 -4.528828,0.07981 -5.490903,0.03726 z m 4.384822,-1.871921 c 2.10292,-0.0791 4.45455,-0.284698 4.997116,-0.436897 0.914031,-0.256402 1.7751,-0.938571 2.227602,-1.764783 0.305534,-0.557867 0.403893,-0.986657 0.535958,-2.336457 0.364568,-3.726192 0.364568,-7.462002 0,-11.1881937 C 21.695007,5.3840012 21.628361,4.981724 21.497429,4.6105114 21.186424,3.7287681 20.525178,2.9834271 19.6835,2.5658929 19.193675,2.3229044 18.851975,2.2368725 18.024273,2.1481394 14.204323,1.7386256 10.022252,1.7312408 6.1931539,2.1272478 5.6604143,2.1823441 5.1385872,2.2588147 4.9685642,2.3067043 4.0481706,2.5659472 3.2022954,3.2354905 2.7394356,4.0711468 2.421994,4.6442626 2.320379,5.1332089 2.1669791,6.8256676 1.8386022,10.448642 1.8510639,13.978223 2.2050055,17.595797 c 0.1320634,1.3498 0.2304231,1.77859 0.5359574,2.336457 0.4525025,0.826212 1.3135767,1.508384 2.2276013,1.764781 0.5159296,0.144725 2.9445389,0.362525 4.8391048,0.433975 1.241066,0.04681 3.027298,0.04805 4.226811,0.0029 z"
     id="path4" />
  <path
     style="fill:#ffffff;stroke-width:0.0396589"
     d="m 6.6276861,11.805306 c 0,-4.3808588 0.0038,-4.6369485 0.06913,-4.6560064 0.5129902,-0.1496539 2.6339763,-0.2385883 3.4081609,-0.1429071 0.733758,0.090685 1.3984,0.3370186 1.846929,0.6845205 0.643741,0.4987433 0.994964,1.3612147 0.944452,2.319226 -0.07168,1.359363 -0.798485,2.275766 -2.140619,2.699004 C 10.21919,12.878344 9.9020855,12.91746 9.0669873,12.91746 H 8.2868027 l 2.7e-6,1.761842 2.2e-6,1.761842 H 7.4572469 6.6276861 Z M 9.804211,11.563763 C 10.399251,11.43671 10.84099,11.128116 11.05117,10.692665 11.451266,9.8637394 11.185808,8.851501 10.472082,8.4845026 10.127112,8.3071193 9.8751291,8.2606118 9.2546288,8.2598031 8.9287297,8.2593782 8.5774492,8.2735966 8.4740055,8.2913985 l -0.18808,0.032369 0.010316,1.6199816 0.010316,1.6199809 0.13826,0.02462 c 0.273171,0.04864 1.0852171,0.03396 1.3593914,-0.02458 z"
     id="path5" />
  <path
     style="fill:#ffffff;stroke-width:0.0396589"
     d="m 14.469012,16.55874 c -0.591227,-0.09345 -1.362851,-0.363653 -1.362851,-0.477238 0,-0.04242 0.279073,-1.121351 0.29584,-1.14375 0.0043,-0.0056 0.124714,0.04316 0.267702,0.108503 0.783331,0.357993 1.71848,0.438934 2.198044,0.190253 0.265158,-0.1375 0.365866,-0.331742 0.349664,-0.674415 -0.01076,-0.227766 -0.03024,-0.288543 -0.133929,-0.418063 -0.139581,-0.174356 -0.505412,-0.374294 -1.120684,-0.612489 -1.066418,-0.412849 -1.646609,-1.024779 -1.690134,-1.782588 -0.03461,-0.60256 0.149965,-1.086137 0.581338,-1.523099 0.318419,-0.3225443 0.767637,-0.5554368 1.264832,-0.6557382 0.406686,-0.082044 1.307186,-0.059438 1.680849,0.042189 0.276315,0.075155 0.770306,0.2577914 0.770306,0.2847993 0,0.017401 -0.127225,0.4878889 -0.259114,0.9582099 l -0.05815,0.207351 -0.187021,-0.08278 c -0.383001,-0.169534 -0.66484,-0.237458 -1.079005,-0.260041 -0.460067,-0.02508 -0.640215,0.01148 -0.85606,0.174005 -0.173718,0.130761 -0.246852,0.287938 -0.246852,0.530525 0,0.445285 0.141777,0.561928 1.208087,0.993919 1.251113,0.506861 1.750351,1.091474 1.753665,2.053566 0.0034,0.988587 -0.627642,1.727845 -1.71741,2.011903 -0.364626,0.09504 -1.272577,0.136075 -1.659122,0.07498 z"
     id="path6" />
</svg>
