<?xml version="1.0" encoding="UTF-8" standalone="no"?>
<!-- Uploaded to: SVG Repo, www.svgrepo.com, Generator: SVG Repo Mixer Tools -->

<svg
   width="800"
   height="800"
   viewBox="0 0 24 24"
   fill="none"
   version="1.1"
   id="svg4"
   xmlns="http://www.w3.org/2000/svg"
   xmlns:svg="http://www.w3.org/2000/svg">
  <defs
     id="defs4" />
  <path
     style="fill:#ffffff;stroke-width:0.0399081"
     d="M 9.6409783,24.112944 C 8.1602609,24.04711 6.2209838,23.89503 5.2875179,23.771543 2.8575049,23.450079 0.96211467,21.673896 0.48668443,19.27265 0.451689,19.095899 0.37926003,18.508403 0.32573126,17.967104 c -0.39830623,-4.027789 -0.39830623,-7.902878 0,-11.930668 C 0.37926003,5.4951373 0.451689,4.9076421 0.48668443,4.7308915 0.70742586,3.6159975 1.211431,2.6634884 2.0072908,1.8571279 2.9883111,0.86316401 4.0702497,0.36217824 5.5969343,0.1949637 9.1698028,-0.19636516 13.047631,-0.25353472 16.658584,0.03188523 c 1.826545,0.14437539 2.530369,0.24145637 3.087801,0.4259118 1.947716,0.64450377 3.367347,2.25488947 3.766939,4.27309447 0.035,0.1767506 0.107422,0.7642458 0.160952,1.3055445 0.398396,4.02869 0.39826,7.918815 -4.15e-4,11.930668 -0.105759,1.064238 -0.169745,1.450097 -0.323083,1.948274 -0.595908,1.936031 -2.349558,3.477923 -4.33317,3.809926 -0.644084,0.107797 -2.243659,0.252648 -3.86563,0.350045 -0.930356,0.05586 -4.545405,0.08052 -5.5110023,0.0376 z m 4.4008707,-1.888609 c 2.110617,-0.0798 4.470855,-0.287236 5.015407,-0.440792 0.917376,-0.258688 1.781597,-0.946939 2.235755,-1.780516 0.306653,-0.562841 0.405372,-0.995453 0.53792,-2.357288 C 22.14213,14.44837 22.18934,11.20728 21.970775,8.0449663 21.894974,6.9482548 21.767514,5.6353822 21.69335,5.187417 21.497528,4.0046311 20.767988,3.0086577 19.711546,2.4818409 19.219929,2.2366861 18.876978,2.1498872 18.046246,2.060363 14.212314,1.6471983 10.014936,1.6397477 6.1718227,2.0392852 5.6371332,2.0948727 5.113396,2.172025 4.9427507,2.2203415 4.0189883,2.4818957 3.1700171,3.1574081 2.7054631,4.0005145 2.3868596,4.5787397 2.2848726,5.072045 2.1309112,6.7795923 1.8013325,10.434866 1.8138398,13.995914 2.1690769,17.645739 c 0.1325467,1.361835 0.2312664,1.794447 0.537919,2.357288 0.4541588,0.833577 1.3183847,1.521831 2.2357548,1.780514 0.5178181,0.146015 2.9553165,0.365757 4.856817,0.437844 1.2456083,0.04722 3.0383783,0.04847 4.2422813,0.003 z"
     id="path5" />
  <path
     style="fill:#ffffff;stroke-width:0.0399081"
     d="m 6.420506,16.430579 c 0.00958,-0.02762 0.6845719,-2.160536 1.4999969,-4.73982 l 1.4825904,-4.6896065 1.0903057,1.544e-4 1.090307,1.545e-4 1.502394,4.6894656 c 0.826317,2.579206 1.51035,4.712403 1.520071,4.740441 0.01401,0.04043 -0.169587,0.04874 -0.886933,0.04017 l -0.904611,-0.01081 -0.419362,-1.325629 -0.419361,-1.32563 H 10.457207 8.9385111 L 8.5388304,15.145145 8.1391492,16.480818 H 7.2711243 c -0.6772713,0 -0.8641992,-0.01107 -0.8506183,-0.05021 z m 5.251943,-3.97689 C 11.541783,12.105793 10.7673,9.5411312 10.63969,9.0337636 10.546762,8.6642663 10.454083,8.3619377 10.433751,8.3619226 c -0.02034,-1.5e-5 -0.138426,0.4031791 -0.262431,0.8959863 -0.124001,0.4928075 -0.387726,1.4167231 -0.5860501,2.0531461 -0.1983251,0.636423 -0.3605905,1.165168 -0.3605905,1.17499 0,0.0098 0.5549917,0.01785 1.2333146,0.01785 0.970278,0 1.229291,-0.01068 1.214455,-0.05021 z"
     id="path6" />
  <path
     style="fill:#ffffff;stroke-width:0.0399081"
     d="M 15.290745,13.046206 V 9.6116198 h 0.852421 0.852422 v 3.4345862 3.434587 h -0.852422 -0.852421 z"
     id="path7" />
  <path
     style="fill:#ffffff;stroke-width:0.0399081"
     d="M 15.794558,8.5425848 C 15.378086,8.4128916 15.111307,7.9403664 15.207831,7.5033614 c 0.09187,-0.4159468 0.394401,-0.6881635 0.813495,-0.7319884 0.540997,-0.056572 0.96742,0.2759942 1.039785,0.8109285 0.05736,0.4240272 -0.209234,0.8385395 -0.617873,0.9606848 -0.259851,0.077671 -0.398248,0.077586 -0.64868,-4.015e-4 z"
     id="path8" />
</svg>
