<?xml version="1.0" encoding="UTF-8" standalone="no"?>
<!-- Uploaded to: SVG Repo, www.svgrepo.com, Generator: SVG Repo Mixer Tools -->

<svg
   width="800"
   height="800"
   viewBox="0 0 24 24"
   fill="none"
   version="1.1"
   id="svg3"
   xmlns="http://www.w3.org/2000/svg"
   xmlns:svg="http://www.w3.org/2000/svg">
  <defs
     id="defs3" />
  <path
     style="fill:#ffffff;stroke-width:0.0395573"
     d="M 9.655102,23.972511 C 8.1832499,23.90744 6.2555835,23.757122 5.3277064,23.635065 2.9122422,23.317326 1.0282,21.561725 0.55561625,19.188305 0.52083034,19.013602 0.44883501,18.432914 0.39562673,17.897887 c -0.39592151196,-3.981116 -0.39592151196,-7.811301 0,-11.7924181 C 0.44883501,5.5704427 0.52083034,4.9897552 0.55561625,4.8150528 0.77503607,3.7130779 1.2760236,2.7716063 2.0671186,1.9745897 3.0422653,0.99214359 4.1177262,0.49696312 5.6352703,0.33168623 9.1867475,-0.055108 13.041359,-0.11161509 16.630692,0.17049747 c 1.81561,0.14270241 2.51522,0.23865844 3.069314,0.42097644 1.936055,0.63703549 3.347186,2.22876039 3.744386,4.22357889 0.03479,0.1747024 0.106779,0.7553899 0.159988,1.2904161 0.396011,3.9820061 0.395876,7.8270541 -4.13e-4,11.7924181 -0.105125,1.051906 -0.168728,1.433294 -0.321147,1.925698 -0.592341,1.913597 -2.335492,3.437621 -4.307228,3.765777 -0.640227,0.106548 -2.230226,0.249721 -3.842486,0.345989 -0.924785,0.05521 -4.518191,0.07959 -5.4780065,0.03716 z m 4.374522,-1.866724 c 2.097981,-0.07888 4.444087,-0.283908 4.985379,-0.435685 0.911884,-0.255691 1.770931,-0.935966 2.22237,-1.759884 0.304816,-0.556319 0.402944,-0.983918 0.534699,-2.329972 0.309336,-3.160319 0.356263,-6.363852 0.139006,-9.4895212 C 21.835732,7.0067218 21.709035,5.7090624 21.635314,5.2662882 21.440665,4.0972081 20.715493,3.1127758 19.665376,2.5920636 19.176702,2.3497496 18.835804,2.2639565 18.010046,2.1754697 14.199069,1.7670927 10.026821,1.7597284 6.2067168,2.1546361 5.6752285,2.2095795 5.1546271,2.2858378 4.9850034,2.3335945 4.0667717,2.5921178 3.2228834,3.2598025 2.7611108,4.0931392 2.4444148,4.664664 2.3430384,5.152253 2.1899988,6.8400137 1.8623933,10.452931 1.8748257,13.972714 2.227936,17.580246 c 0.1317531,1.346054 0.2298818,1.773653 0.5346984,2.329972 0.4514397,0.823918 1.3104914,1.504197 2.222369,1.759882 0.5147178,0.144323 2.9376226,0.361519 4.8277385,0.432771 1.2381511,0.04668 3.0201871,0.04791 4.2168821,0.0029 z"
     id="path4" />
  <path
     style="fill:#ffffff;stroke-width:0.0395573"
     d="m 14.502547,16.525356 c -0.151729,-0.03356 -0.426616,-0.135182 -0.610858,-0.225811 -0.476797,-0.234539 -0.972428,-0.734834 -1.231433,-1.24302 -0.36425,-0.714685 -0.514945,-1.563494 -0.429077,-2.416822 0.134798,-1.33955 0.763565,-2.355743 1.759036,-2.8428954 0.412627,-0.2019277 0.738634,-0.2753932 1.225261,-0.276112 0.726871,-0.00107 1.300379,0.2164068 1.690662,0.6411164 0.117159,0.127495 0.222824,0.23181 0.234806,0.23181 0.012,0 0.02178,-0.8665641 0.02178,-1.9256988 V 6.5422254 h 0.823038 0.823036 l 0.02358,4.7745406 c 0.01297,2.625997 0.03462,4.850475 0.04812,4.943286 l 0.02455,0.168747 h -0.747317 -0.747317 l -0.02532,-0.244055 c -0.01393,-0.13423 -0.02556,-0.335238 -0.02586,-0.446683 -5.8e-4,-0.217958 -0.03224,-0.381301 -0.07391,-0.381301 -0.01422,0 -0.05945,0.06287 -0.100529,0.139707 -0.202996,0.37976 -0.742877,0.789487 -1.260395,0.95654 -0.40716,0.131427 -1.015001,0.162357 -1.421854,0.07235 z m 1.722934,-1.416346 c 0.432729,-0.199787 0.749532,-0.591351 0.876835,-1.083758 0.08577,-0.331759 0.08526,-1.73208 -7.54e-4,-2.064863 -0.295854,-1.14467 -1.65542,-1.54645 -2.535471,-0.749287 -0.231136,0.209368 -0.448985,0.611542 -0.561572,1.036729 -0.166022,0.626986 -0.09113,1.570434 0.165363,2.083309 0.206125,0.412153 0.578011,0.731938 0.98293,0.845222 0.327614,0.09166 0.791319,0.06254 1.072666,-0.06735 z"
     id="path5" />
  <path
     style="fill:#ffffff;stroke-width:0.0395573"
     d="m 4.5642615,16.39902 c 0.0638,-0.109055 2.5557247,-4.393487 2.6391623,-4.537581 L 7.3076206,11.681496 5.9907342,9.37987 4.6738478,7.0782443 5.5872552,7.0675577 c 0.5023736,-0.00588 0.9335626,-0.00289 0.9581971,0.00664 0.043231,0.016713 1.0489412,1.9340456 1.5589233,2.9720023 0.1368027,0.278432 0.2628688,0.506239 0.2801465,0.506239 0.017278,0 0.078048,-0.111675 0.135043,-0.248156 0.056996,-0.136486 0.4420064,-0.9226477 0.8555782,-1.7470251 L 10.127092,7.0583916 h 0.958487 c 0.69277,0 0.950986,0.012226 0.931428,0.04411 -0.01489,0.02426 -0.627873,1.0541446 -1.362199,2.288631 C 9.8060644,10.817969 9.332126,11.6517 9.3538621,11.679699 c 0.018805,0.02422 0.6336466,1.06248 1.3663129,2.307235 0.732669,1.244756 1.357865,2.303393 1.389328,2.352528 l 0.0572,0.08934 H 11.203605 10.240501 L 9.4093857,14.890225 C 8.9522716,14.04401 8.514413,13.222115 8.4363657,13.06379 8.3583188,12.905466 8.2806326,12.775929 8.2637296,12.775929 c -0.016902,0 -0.099656,0.156338 -0.1838972,0.34742 -0.08424,0.19108 -0.488454,1.012975 -0.8982515,1.826434 L 6.436494,16.428799 H 5.4916673 c -0.5196547,0 -0.9369876,-0.0134 -0.9274058,-0.02978 z"
     id="path6" />
</svg>
