<?xml version="1.0" encoding="UTF-8" standalone="no"?>
<svg
   viewBox="0 0 576 576"
   id="behance"
   version="1.1"
   width="576"
   height="576"
   xmlns="http://www.w3.org/2000/svg"
   xmlns:svg="http://www.w3.org/2000/svg">
  <defs
     id="defs4" />
  <path
     d="m 168.28855,287.77821 a 12.02061,12.02061 0 0 1 0,-24.04122 c 40.31713,0 73.13339,-32.35949 73.13339,-72.12367 0,-39.76417 -32.81626,-72.12366 -73.13339,-72.12366 a 12.020611,12.020611 0 0 1 0,-24.041216 c 53.58787,0 97.1746,43.129946 97.1746,96.164876 0,53.03493 -43.58673,96.16489 -97.1746,96.16489 z"
     id="path1"
     style="stroke-width:24.0412" />
  <path
     d="m 168.28855,456.06676 a 12.020617,12.020617 0 0 1 0,-24.04123 c 46.11105,0 95.4196,-18.94448 95.4196,-72.12366 0,-49.59704 -49.45279,-72.12366 -95.4196,-72.12366 a 12.02061,12.02061 0 0 1 0,-24.04122 c 70.32057,0 119.46082,39.54781 119.46082,96.16488 0,58.42016 -46.88037,96.16489 -119.46082,96.16489 z"
     id="path2"
     style="stroke-width:24.0412" />
  <path
     d="M 168.28855,287.77821 H 24.041221 a 12.02061,12.02061 0 0 1 0,-24.04122 H 168.28855 a 12.02061,12.02061 0 0 1 0,24.04122 z M 456.7832,455.05702 c -75.39328,0 -132.22672,-56.42474 -132.22672,-131.21698 0,-72.36408 53.92446,-131.21698 120.20611,-131.21698 81.57186,0 132.22671,50.29423 132.22671,131.21698 0,6.61134 -5.40928,12.02061 -12.02061,12.02061 -6.61133,0 -12.02061,-5.40927 -12.02061,-12.02061 0,-32.23928 -10.53006,-107.17576 -108.18549,-107.17576 -53.03494,0 -96.16489,48.08244 -96.16489,107.17576 0,62.09847 45.51003,107.17576 108.1855,107.17576 32.35948,0 70.34461,-16.92502 86.54839,-38.53807 a 12.02061,12.02061 0 1 1 19.25702,14.35261 c -23.72868,31.71036 -71.2101,48.22668 -105.80541,48.22668 z"
     id="path3"
     style="stroke-width:24.0412" />
  <path
     d="M 562.73285,335.86065 H 336.57709 a 12.044652,12.044652 0 0 1 -12.02061,-12.02061 c 0,-6.61134 5.40928,-12.02061 12.02061,-12.02061 h 226.15576 c 6.61134,0 12.02061,5.40927 12.02061,12.02061 0,6.61134 -5.40927,12.02061 -12.02061,12.02061 z M 504.86564,143.53089 h -120.2061 c -6.61134,0 -12.02061,-5.40928 -12.02061,-12.02061 0,-6.61134 5.40927,-12.02062 12.02061,-12.02062 h 120.2061 c 6.61134,0 12.02061,5.40928 12.02061,12.02062 0,6.61133 -5.40927,12.02061 -12.02061,12.02061 z M 168.28855,456.06676 H 12.02061 A 12.02061,12.02061 0 0 1 0,444.04614 V 107.46905 A 12.02061,12.02061 0 0 1 12.02061,95.448444 h 156.26794 a 12.020611,12.020611 0 0 1 0,24.041216 H 24.041221 V 432.02553 H 168.28855 a 12.020617,12.020617 0 0 1 0,24.04123 z"
     id="path4"
     style="stroke-width:24.0412" />
  <path
     style="fill:#ffffff;stroke-width:0.748365"
     d="M 87.052112,455.36515 C 7.7323728,454.99163 7.5893355,454.98821 5.4803411,453.41601 4.3183565,452.54979 2.6941135,450.6976 1.870912,449.30002 0.38801617,446.78244 0.37212709,445.20959 0.15181407,279.12524 0.02951133,186.92669 0.1358115,109.7405 0.38803636,107.60037 0.91509541,103.12826 3.1186201,99.435711 6.406004,97.515775 c 2.1545646,-1.258342 7.106659,-1.336788 86.807777,-1.375351 73.485759,-0.03558 85.402379,0.112273 91.258159,1.13138 9.97665,1.736426 18.03336,4.400646 27.22999,9.004486 46.43784,23.24683 66.00048,78.07391 44.60724,125.01825 -6.72328,14.75327 -19.18213,29.45761 -33.2336,39.22334 l -2.55643,1.77665 1.80807,0.74431 c 38.35558,15.7874 59.69664,40.96175 64.37807,75.94163 1.65645,12.37776 0.004,28.51602 -4.23026,41.33147 -11.73949,35.52432 -46.66947,59.32143 -94.26126,64.21843 -11.59751,1.19341 -16.47577,1.23355 -101.161646,0.83471 z m 98.916548,-23.96317 c 29.14852,-3.25275 52.29024,-14.25604 65.03333,-30.92164 11.57209,-15.13421 15.72566,-35.69548 11.28934,-55.88511 -1.69464,-7.71223 -7.56421,-19.41244 -12.99175,-25.8973 -11.1556,-13.32874 -30.68985,-23.70538 -54.35053,-28.87112 -7.39401,-1.6143 -8.46308,-1.63695 -89.24251,-1.88978 l -81.758865,-0.25581 v 72.24235 72.24239 l 77.642855,-0.006 c 46.97103,-0.004 80.30354,-0.30316 84.37813,-0.75779 z m 1.33492,-169.65868 c 21.50701,-6.10332 38.17139,-20.1009 47.72578,-40.08819 4.90289,-10.25665 6.17491,-16.31118 6.24285,-29.71438 0.0676,-13.35023 -1.24383,-19.72407 -6.26292,-30.43846 -9.45975,-20.19393 -25.22984,-33.30845 -48.29226,-40.16017 -5.13639,-1.52599 -6.77472,-1.56105 -84.00395,-1.79748 l -78.765405,-0.24114 v 72.25994 72.25994 l 78.765405,-0.21396 c 78.67538,-0.21396 78.77206,-0.21637 84.5905,-1.86655 z"
     id="path5" />
  <path
     style="fill:#ffffff;stroke-width:0.748365"
     d="m 440.7869,453.78693 c -51.12826,-5.79072 -92.79694,-38.79429 -108.58019,-86.00067 -19.48464,-58.27691 1.5985,-122.9393 50.82557,-155.88266 21.29492,-14.25083 45.64672,-20.39058 73.13195,-18.43854 38.11144,2.70672 66.27838,14.8584 87.8664,37.90706 21.69903,23.16715 33.55184,57.93439 32.28058,94.68697 -0.0865,2.53197 -4.08859,7.20181 -7.33109,8.55663 -1.9947,0.83352 -21.55816,1.01094 -111.37683,1.01094 H 348.64632 l 0.49573,3.55473 c 0.95516,6.848 3.51032,17.7894 5.37027,22.99644 12.63662,35.37687 41.32842,59.54292 79.66826,67.10157 12.16935,2.39908 31.24376,2.42581 43.0038,0.0601 16.41768,-3.30273 33.88574,-10.33201 47.04507,-18.93129 3.56911,-2.33224 9.52308,-7.47779 14.74306,-12.7411 6.67742,-6.73284 9.43679,-9.01207 11.62326,-9.60084 8.23553,-2.21757 16.20951,5.98797 13.76091,14.1606 -1.80887,6.03715 -14.85573,19.25097 -26.97232,27.31734 -28.04553,18.67067 -64.66061,27.85978 -96.59759,24.24264 z M 552.5844,308.87275 c -2.23653,-18.54966 -7.05251,-34.26142 -14.39416,-46.9599 -6.30143,-10.8992 -16.89625,-22.21445 -26.61268,-28.42222 -9.14608,-5.84339 -22.93799,-11.52192 -33.74661,-13.89444 -13.61769,-2.98912 -36.80594,-3.88028 -48.39231,-1.85978 -41.35811,7.21224 -73.71225,43.93414 -80.29648,91.13634 l -0.49573,3.55473 h 102.18334 102.18334 z"
     id="path6" />
  <path
     style="fill:#ffffff;stroke-width:0.748365"
     d="m 379.62637,141.7374 c -8.10923,-4.03158 -8.64314,-14.79568 -0.98972,-19.95333 l 2.50241,-1.68637 h 63.20013 c 56.76097,0 63.46099,0.12382 65.76017,1.21481 3.6198,1.71769 5.73708,5.03856 6.10022,9.5679 0.33995,4.23932 -1.32491,7.52513 -5.30808,10.47687 -2.09928,1.55561 -2.51207,1.56677 -65.10774,1.75891 -62.69285,0.19233 -63.0103,0.18584 -66.15739,-1.37879 z"
     id="path7" />
</svg>
