<?xml version="1.0" encoding="UTF-8" standalone="no"?>
<!-- Uploaded to: SVG Repo, www.svgrepo.com, Generator: SVG Repo Mixer Tools -->

<svg
   width="800"
   height="800"
   viewBox="0 0 24 24"
   fill="none"
   version="1.1"
   id="svg1"
   xmlns="http://www.w3.org/2000/svg"
   xmlns:svg="http://www.w3.org/2000/svg">
  <defs
     id="defs1" />
  <path
     style="fill:#ffffff;stroke:#ffffff;stroke-width:0.236748;stroke-dasharray:none;stroke-opacity:1"
     d="M 11.350304,16.428705 C 11.076275,16.25968 5.4304064,10.814497 2.9034096,8.2820665 2.036391,7.4131815 1.3457499,6.6795239 1.3045802,6.5836518 1.2647175,6.490819 1.232614,6.2838104 1.2332387,6.1236202 1.2365977,5.2643521 2.0849567,4.624944 2.9276544,4.8465469 3.2131479,4.9216231 3.489452,5.178673 8.2339755,9.7831156 l 3.7662585,3.6550584 3.766257,-3.6550584 c 4.744526,-4.6044426 5.020829,-4.8614931 5.306323,-4.9365687 0.283751,-0.074617 0.694964,-0.032583 0.957863,0.097916 0.268577,0.1333155 0.599469,0.5010912 0.676806,0.7522487 0.08218,0.2668602 0.07681,0.6810517 -0.01152,0.8866281 -0.114568,0.2667926 -5.362566,5.4470813 -9.024247,8.9078143 -1.138436,1.075964 -1.168383,1.094683 -1.752004,1.095206 -0.262591,2.2e-4 -0.354954,-0.02536 -0.569468,-0.157659 z"
     id="path4" />
</svg>
