<?xml version="1.0" encoding="UTF-8" standalone="no"?>
<svg
   viewBox="0 0 256 256"
   id="instagram"
   version="1.1"
   width="256"
   height="256"
   xmlns="http://www.w3.org/2000/svg"
   xmlns:svg="http://www.w3.org/2000/svg">
  <defs
     id="defs2" />
  <path
     style="fill:#ffffff;stroke-width:0.33255"
     d="M 66.330798,255.69352 C 41.877426,253.48254 21.091256,239.98892 9.044698,218.50547 3.8891378,209.3112 0.99567185,199.00214 0.31765452,187.41212 c -0.42240963,-7.22066 -0.42240963,-111.831881 0,-119.052546 C 0.86261951,59.043952 2.6694527,51.197203 6.0896917,43.29267 9.6755737,35.005314 14.596235,27.808217 21.260982,21.102711 32.287078,10.009187 45.469549,3.2998498 61.541717,0.6014695 64.748423,0.06309067 69.595063,0.02075227 128.01864,0.02075227 c 59.15482,0 63.25052,0.03684079 66.81036,0.60094521 25.10516,3.97824282 45.84713,20.09145552 55.73282,43.29552452 3.17341,7.44872 4.96205,15.411546 5.49036,24.442352 0.42242,7.220665 0.42242,111.831886 0,119.052546 -0.37049,6.33247 -1.18967,11.26684 -2.79647,16.84351 -6.86415,23.8236 -26.72312,43.09682 -50.8044,49.30591 -8.9756,2.31425 -4.03314,2.16414 -72.76992,2.21046 -34.11122,0.0224 -62.618984,-0.0122 -63.350592,-0.0785 z M 189.58811,239.93853 c 25.07178,-2.53995 44.88705,-20.52265 49.9072,-45.29168 l 0.75861,-3.74296 V 127.88585 64.86781 l -0.75861,-3.742972 c -4.52155,-22.308931 -21.6221,-39.773406 -43.38443,-44.307712 -6.41222,-1.336022 -8.53117,-1.373325 -70.58636,-1.24263 -65.380217,0.137698 -60.932082,0.0037 -68.517882,2.063293 C 36.686409,23.15473 21.160406,39.978661 16.874519,61.124838 l -0.758622,3.742972 v 63.01804 63.01804 l 0.758625,3.74296 c 4.970486,24.52394 24.834278,42.70827 49.456279,45.27478 4.057388,0.42289 119.093709,0.43876 123.257309,0.0177 z"
     id="path2" />
  <path
     style="fill:#ffffff;stroke-width:0.33255"
     d="m 119.59967,191.22195 c -24.065218,-3.27886 -44.33012,-20.10922 -52.052913,-43.23083 -4.339555,-12.9924 -4.339555,-27.21815 0,-40.21054 8.747838,-26.190549 33.080643,-43.744142 60.638163,-43.744142 30.22638,0 56.37672,21.235409 62.5288,50.776552 1.82416,8.75931 1.82416,17.38641 0,26.14572 -5.51663,26.48991 -27.37812,46.75275 -54.24049,50.2741 -4.61043,0.60445 -12.39484,0.59932 -16.87356,-0.0106 z m 18.29378,-16.08604 c 14.91323,-3.2402 26.92435,-12.58385 33.5238,-26.07872 3.46194,-7.07917 4.87023,-13.2011 4.87023,-21.17134 0,-7.97025 -1.40825,-14.09217 -4.87023,-21.17134 -6.62896,-13.555234 -18.50616,-22.766201 -33.69391,-26.130195 -4.65238,-1.030475 -14.42446,-1.030475 -19.07685,0 -9.89888,2.192544 -17.54538,6.327866 -24.395244,13.193264 -3.889897,3.898716 -5.77132,6.343621 -8.205929,10.663561 -4.037687,7.16444 -5.981607,14.84478 -5.9679,23.57892 0.01232,7.85913 1.436904,14.00639 4.875173,21.03713 7.106115,14.53095 20.8555,24.4708 36.91905,26.68992 3.63694,0.50237 12.44229,0.1665 16.02181,-0.6112 z"
     id="path3" />
  <path
     style="fill:#ffffff;stroke-width:0.33255"
     d="m 197.18884,71.322095 c -2.26325,-0.43874 -5.95973,-2.399923 -7.74139,-4.107249 -3.27877,-3.141956 -4.89547,-6.95219 -4.89547,-11.537652 0,-6.988406 4.66515,-13.153362 11.42024,-15.091748 2.23967,-0.64267 6.14361,-0.713757 8.23732,-0.149994 5.47762,1.474962 10.00449,6.021546 11.42482,11.474554 2.87774,11.048356 -7.15018,21.601719 -18.44552,19.412071 z"
     id="path4" />
</svg>
