<?xml version="1.0" encoding="UTF-8" standalone="no"?>
<!-- Created with Inkscape (http://www.inkscape.org/) -->

<svg
   width="22"
   height="22"
   viewBox="0 0 5.8208333 5.8208334"
   version="1.1"
   id="svg1"
   xml:space="preserve"
   xmlns="http://www.w3.org/2000/svg"
   xmlns:svg="http://www.w3.org/2000/svg"><defs
     id="defs1" /><path
     style="fill:#ffffff;fill-opacity:1;stroke:none;stroke-width:0;stroke-dasharray:none;stroke-opacity:1"
     d="M 3.6116971,5.2538469 C 3.3399285,5.3842174 2.9995373,5.3549745 2.7411324,5.1790572 2.6610502,5.1245387 2.5253765,4.9794115 2.4783965,4.8980145 2.4608885,4.8676799 2.346371,4.6056406 2.2239134,4.3157048 L 2.0012634,3.788549 1.9218092,3.700576 1.8423548,3.6126028 1.3513167,3.3410859 C 1.0812457,3.1917516 0.82955411,3.048341 0.79200194,3.0223956 0.70345351,2.961216 0.5963635,2.842454 0.53900928,2.7418288 0.51396351,2.6978872 0.47688464,2.6057986 0.45661179,2.5371875 0.42561074,2.432268 0.42097459,2.3881856 0.42744364,2.2598449 0.43947474,2.0211579 0.51174417,1.8623322 0.67610626,1.7133619 0.75461344,1.6422066 0.81230707,1.6048071 0.89361293,1.5723649 0.99504883,1.5318905 4.2119655,0.5998799 4.2855484,0.5896475 4.4706752,0.563904 4.6777811,0.6093403 4.8546772,0.714507 4.9638954,0.7794385 5.1194498,0.9466235 5.1777076,1.0616898 5.2648155,1.2337392 5.2951334,1.4415637 5.2596052,1.6230873 5.2449562,1.6979328 5.068586,2.1504901 4.6051306,3.3024379 4.2561985,4.1697302 3.9548234,4.9091357 3.9354079,4.9455614 3.8843907,5.0412755 3.7114099,5.2060134 3.6116971,5.2538469 Z M 3.5943317,4.7477953 C 3.6397843,4.6624747 4.8480497,1.7027956 4.8696732,1.6238119 4.9354759,1.3834559 4.8268503,1.1318958 4.6091626,1.0205089 4.5247636,0.977323 4.3996179,0.9559325 4.3157283,0.970353 4.2769817,0.9770137 3.5214928,1.1948388 2.6368641,1.4544092 l -1.608416,0.471946 -0.0833306,0.075286 c -0.0687481,0.062111 -0.0876208,0.086074 -0.10784652,0.1369346 -0.0341726,0.085932 -0.0369239,0.2021598 -0.007253,0.3064175 0.0216054,0.075918 0.035602,0.1010978 0.0984166,0.1770482 l 0.0732291,0.088543 0.2758953,0.152693 c 0.151742,0.083981 0.3914436,0.2166746 0.5326698,0.2948744 l 0.256775,0.1421814 0.273457,-0.2469645 C 2.496749,2.9122216 2.6320397,2.7973405 2.6562121,2.7852503 c 0.054483,-0.027252 0.1588685,-0.016897 0.208199,0.020653 0.046245,0.035201 0.076862,0.1299883 0.06311,0.195383 -0.00848,0.040333 -0.024811,0.057371 -0.3067746,0.3200747 l -0.2978161,0.2774739 0.030832,0.058261 c 0.016957,0.032043 0.1259499,0.2816755 0.2422053,0.5547375 l 0.2113737,0.4964765 0.083159,0.084625 c 0.067766,0.068961 0.096501,0.090079 0.155232,0.1140869 0.2241651,0.091633 0.4498562,0.026129 0.5485993,-0.1592265 z"
     id="path2" /></svg>
