<?xml version="1.0" encoding="UTF-8" standalone="no"?>
<!-- Created with Inkscape (http://www.inkscape.org/) -->

<svg
   width="144"
   height="144"
   viewBox="0 0 38.1 38.1"
   version="1.1"
   id="svg1"
   xml:space="preserve"
   xmlns="http://www.w3.org/2000/svg"
   xmlns:svg="http://www.w3.org/2000/svg"><defs
     id="defs1" /><g
     id="layer1"
     transform="matrix(0.92835399,-0.13744455,0.12881976,0.99050946,-1.159709,1.510316)"><path
       style="fill:#ffffff;fill-opacity:1;stroke:#ffffff;stroke-width:0.603959;stroke-dasharray:none;stroke-opacity:1"
       d="m 26.263272,23.321377 c -0.308679,0.03219 -0.601599,-0.189367 -0.62812,-0.475103 -0.01537,-0.165679 0.162427,-1.787722 0.551982,-5.035562 l 0.301577,-2.514332 -2.256552,1.65243 c -1.241111,0.908828 -4.642414,3.390413 -7.558597,5.514441 l -5.302052,3.862002 -0.136575,0.0045 c -0.2171,0.0073 -0.364308,-0.0536 -0.496391,-0.205207 -0.09866,-0.113249 -0.112729,-0.142285 -0.132453,-0.272997 -0.01271,-0.08406 -0.006,-0.194244 0.01575,-0.259095 l 0.03777,-0.112826 2.828533,-2.09015 c 1.555702,-1.149577 4.920831,-3.624288 7.478104,-5.499315 3.470515,-2.544558 4.645093,-3.41482 4.631904,-3.431468 -0.01495,-0.01888 -2.716776,-0.433379 -5.793821,-0.888905 -1.005833,-0.148902 -1.72701,-0.286574 -1.857526,-0.354612 -0.215788,-0.112502 -0.316677,-0.441967 -0.207687,-0.678325 0.08792,-0.190628 0.230619,-0.290453 0.427147,-0.298811 0.316988,-0.01344 9.17275,1.330037 9.316831,1.413426 0.108369,0.06269 0.233741,0.221703 0.268019,0.340105 0.01864,0.06391 -0.0696,0.927702 -0.28209,2.762523 -0.507736,4.384242 -0.735135,6.189165 -0.793537,6.298541 -0.08067,0.151005 -0.232615,0.250092 -0.412357,0.268831 z"
       id="path3" /></g></svg>
