<?xml version="1.0" encoding="UTF-8" standalone="no"?>
<!-- Uploaded to: SVG Repo, www.svgrepo.com, Generator: SVG Repo Mixer Tools -->

<svg
   height="800.00006"
   width="800.00006"
   version="1.1"
   id="Capa_1"
   viewBox="0 0 137.23801 137.23801"
   xml:space="preserve"
   xmlns="http://www.w3.org/2000/svg"
   xmlns:svg="http://www.w3.org/2000/svg"><defs
   id="defs1" />

<path
   style="fill:#ffffff;fill-opacity:1;stroke-width:0.411779"
   d="M 47.545241,64.942976 93.223202,64.838241 89.495403,60.720446 C 87.445115,58.455659 84.13923,54.835679 82.148996,52.676045 l -3.618611,-3.926607 1.721457,-1.98433 1.721457,-1.984329 11.065591,11.614951 11.06559,11.614951 -10.658302,10.664218 c -5.862066,5.86532 -10.767201,10.664219 -10.900301,10.664219 -0.249875,0 -2.852286,-3.488068 -2.852286,-3.822977 0,-0.103522 3.04148,-3.408644 6.758848,-7.344715 L 93.211287,71.014932 47.539281,70.910198 1.8672761,70.805463 v -2.878876 -2.878876 z"
   id="path16" /><path
   style="fill:#ffffff;fill-opacity:1;stroke-width:0.411779"
   d="m 25.189665,52.975488 c 5.676086,-21.348371 23.603102,-37.764332 45.032997,-41.2372 5.065728,-0.820938 13.623951,-0.814352 18.560457,0.01428 23.052721,3.869591 40.903431,21.391551 45.953861,45.107549 1.0048,4.71839 1.00786,15.595017 0.006,20.623792 -4.58573,23.013341 -22.68822,40.904881 -45.594373,45.063091 -8.146142,1.47878 -18.343613,0.79397 -26.487848,-1.77879 C 44.233969,114.94725 29.33364,98.983222 24.774007,80.177025 l -0.27455,-1.132393 h 2.814834 2.814834 l 0.973664,3.191291 c 0.53552,1.755209 1.968416,5.184051 3.184216,7.619653 7.221351,14.466434 21.036968,24.708874 36.770529,27.260434 24.319421,3.94397 47.572626,-9.66098 56.046756,-32.791745 3.69526,-10.086483 3.82954,-22.977585 0.34761,-33.370457 C 121.91291,34.421013 108.402,22.158398 90.937244,17.81279 87.024867,16.839306 85.668045,16.704421 79.693591,16.695039 74.666455,16.687148 72.010683,16.876698 69.483078,17.423804 59.287086,19.630757 51.06292,24.070933 43.843874,31.266251 37.676762,37.4131 33.25415,44.804946 30.915889,52.873796 c -0.586311,2.023254 -1.132614,3.745232 -1.214003,3.826616 -0.08139,0.08139 -1.346918,0.09269 -2.812294,0.02511 l -2.664314,-0.122871 z"
   id="path17" /></svg>
